<?xml version="1.0" standalone="no"?>
<!DOCTYPE svg PUBLIC "-//W3C//DTD SVG 20010904//EN"
 "http://www.w3.org/TR/2001/REC-SVG-20010904/DTD/svg10.dtd">
<svg version="1.0" xmlns="http://www.w3.org/2000/svg"
 width="600.000000pt" height="400.000000pt" viewBox="0 0 600.000000 400.000000"
 preserveAspectRatio="xMidYMid meet">

<g transform="translate(0.000000,400.000000) scale(0.100000,-0.100000)"
fill="#000000" stroke="none">
<path d="M2239 3935 c-704 -110 -1267 -641 -1418 -1336 -21 -100 -41 -276 -41
-370 l0 -56 -41 -12 c-113 -34 -283 -145 -396 -259 -412 -416 -416 -1091 -9
-1519 150 -159 327 -259 556 -316 85 -21 89 -21 2035 -25 1349 -2 1983 0 2056
8 268 27 491 131 674 315 263 262 371 620 300 990 -62 324 -285 611 -592 765
-43 21 -106 47 -140 57 l-63 18 0 72 c0 393 -218 737 -573 903 -172 81 -386
109 -575 76 -50 -9 -96 -16 -100 -16 -5 0 -23 20 -40 43 -17 24 -59 75 -93
113 -260 288 -609 479 -992 544 -141 24 -411 26 -548 5z m-1002 -2077 c8 -6
13 -33 13 -69 0 -65 -12 -79 -69 -79 -48 0 -55 -25 -61 -211 -5 -155 -7 -168
-34 -223 -21 -42 -40 -66 -71 -85 l-42 -26 44 -28 c33 -20 51 -42 71 -85 24
-53 26 -69 32 -244 6 -212 8 -217 82 -227 l43 -6 3 -61 c3 -72 -6 -84 -72 -91
-65 -8 -141 14 -181 51 -52 49 -66 116 -74 337 -7 215 -11 227 -95 267 l-47
23 3 66 c2 47 7 68 18 73 112 52 113 54 122 266 8 213 22 267 78 318 22 19 52
38 67 42 16 3 33 8 38 10 18 7 118 -6 132 -18z m3663 11 c62 -13 107 -49 134
-109 17 -39 21 -73 25 -240 7 -225 12 -241 83 -261 55 -16 68 -32 68 -88 0
-56 -9 -70 -51 -90 -74 -35 -99 -114 -99 -311 0 -145 -11 -214 -43 -262 -47
-69 -133 -100 -226 -82 -39 8 -47 13 -54 41 -11 37 -1 102 16 108 7 2 29 6 49
10 24 4 42 14 50 28 7 13 14 91 18 197 5 153 9 182 29 227 23 51 88 123 114
123 6 1 -6 10 -28 22 -101 52 -108 71 -115 298 -7 210 -13 230 -65 230 -61 0
-89 52 -69 128 10 37 77 50 164 31z m-1274 -113 c28 -9 63 -25 78 -37 24 -19
26 -27 26 -93 0 -93 -9 -102 -72 -70 -170 86 -318 56 -318 -65 0 -52 43 -88
184 -156 151 -73 204 -114 240 -187 21 -42 26 -66 26 -128 0 -98 -21 -157 -76
-219 -71 -79 -183 -121 -317 -121 -115 0 -248 44 -281 92 -16 23 -22 120 -10
152 9 24 28 20 111 -21 65 -32 86 -37 161 -41 72 -3 93 0 121 16 46 25 75 81
67 126 -10 51 -49 83 -185 148 -195 94 -250 159 -259 299 -5 85 5 124 47 190
58 92 180 143 326 135 44 -3 103 -12 131 -20z m-1669 -20 c125 -40 197 -139
196 -270 -1 -118 -50 -203 -143 -249 l-49 -25 38 -30 c44 -35 79 -99 155 -280
55 -131 64 -166 48 -176 -20 -12 -140 -17 -177 -7 l-41 11 -63 157 c-94 232
-120 263 -223 263 l-58 0 0 -210 0 -210 -27 -7 c-42 -12 -161 -7 -178 7 -13
11 -15 82 -15 505 0 488 0 493 21 520 l22 27 221 -4 c171 -4 233 -9 273 -22z
m1023 -2 c13 -33 13 -100 0 -125 -10 -18 -23 -19 -205 -19 l-195 0 0 -130 0
-130 169 0 c145 0 170 -2 175 -16 11 -28 6 -130 -6 -142 -8 -8 -62 -12 -175
-12 l-163 0 0 -145 0 -145 193 0 c137 0 196 -3 205 -12 7 -7 12 -39 12 -73 0
-34 -5 -66 -12 -73 -19 -19 -567 -17 -594 2 -18 14 -19 33 -22 503 -3 484 -2
490 18 516 l21 27 285 0 284 0 10 -26z m1650 7 c13 -25 13 -117 0 -142 -10
-17 -22 -19 -145 -19 l-135 0 0 -423 c0 -334 -3 -427 -13 -441 -10 -14 -29
-18 -83 -20 -38 0 -81 2 -96 7 l-28 7 0 435 0 435 -140 0 c-160 0 -160 0 -160
90 0 97 -33 90 405 90 370 0 385 -1 395 -19z"/>
<path d="M1640 1446 l0 -146 88 0 c97 0 141 16 175 61 28 38 32 106 10 148
-32 61 -60 73 -172 79 l-101 5 0 -147z"/>
</g>
</svg>
