<svg version="1.1" viewBox="0 0 152 162" xmlns="http://www.w3.org/2000/svg"><path d="m47 136-28-14-.5-4c-.3-2-1-11-2-19-2-14-5-45-7-59-.8-7-1-6 4-9 8-5 25-12 34-15 21-6 35-6 56 .02 9 3 26 10 34 15 4 2 5 3 5 4 .07.6-.6 8-2 16-3 28-8 70-8 71-.3 1-.6 2-10 6-19 10-46 23-47 23-.9.2-6-2-29-14zm4-18c.003-1-.2-14-.5-28-.3-14-.3-26-.2-27l.3-2 9 22c11 27 15 35 16 35 .8-.2 6-12 16-33 5-11 10-22 10-23l1-2-.2 18c-.1 10-.3 23-.5 30l-.3 12h18v-89h-21l-9 22c-9 22-13 32-14 32-.5 0-.8-1-12-30l-9-23h-22v89h17l.005-3z" style="fill:#f39c12;stroke-width:.4"/><path d="m61 155c-12-6-48-25-49-25-.8-.7-13-97-13-103 0-2 2-3 10-7 38-20 64-25 95-16 12 3 29 11 41 18 5 3 6 4 6 6 0 2-3 29-8 67-4 32-4 35-5 35-3 2-63 32-64 32-.5.002-7-3-14-7zm27-6c15-7 39-20 44-22 5-3 5-3 6-6 1-7 10-81 10-88l.2-4-1-1c-1-1-16-9-24-12-18-8-31-11-46-11-13 0-25 2-40 8-11 4-28 12-31 15l-1 1 2 17c5 41 9 78 10 79 .5.7 59 30 60 30 .2 0 6-3 12-6z" style="fill:#f39c12;stroke-width:.4"/></svg>
