<?xml version="1.0" encoding="UTF-8" standalone="no"?>
<svg
   xmlns:dc="http://purl.org/dc/elements/1.1/"
   xmlns:cc="http://creativecommons.org/ns#"
   xmlns:rdf="http://www.w3.org/1999/02/22-rdf-syntax-ns#"
   xmlns:svg="http://www.w3.org/2000/svg"
   xmlns="http://www.w3.org/2000/svg"
   xmlns:sodipodi="http://sodipodi.sourceforge.net/DTD/sodipodi-0.dtd"
   xmlns:inkscape="http://www.inkscape.org/namespaces/inkscape"
   viewBox="12.1 8.4 384.46667 391.968"
   width="3476"
   height="3600"
   version="1.1"
   id="svg45"
   sodipodi:docname="rxjs-icon.svg"
   inkscape:version="0.92.4 (5da689c313, 2019-01-14)">
  <metadata
     id="metadata51">
    <rdf:RDF>
      <cc:Work
         rdf:about="">
        <dc:format>image/svg+xml</dc:format>
        <dc:type
           rdf:resource="http://purl.org/dc/dcmitype/StillImage" />
        <dc:title></dc:title>
      </cc:Work>
    </rdf:RDF>
  </metadata>
  <defs
     id="defs49" />
  <sodipodi:namedview
     pagecolor="#ffffff"
     bordercolor="#666666"
     borderopacity="1"
     objecttolerance="10"
     gridtolerance="10"
     guidetolerance="10"
     inkscape:pageopacity="0"
     inkscape:pageshadow="2"
     inkscape:window-width="1920"
     inkscape:window-height="1029"
     id="namedview47"
     showgrid="false"
     fit-margin-left="0.5"
     inkscape:zoom="0.0944"
     inkscape:cx="1188"
     inkscape:cy="1250"
     inkscape:window-x="-8"
     inkscape:window-y="-8"
     inkscape:window-maximized="1"
     inkscape:current-layer="svg45" />
  <linearGradient
     id="a"
     gradientUnits="userSpaceOnUse"
     x1="53.495998"
     x2="177.93201"
     y1="247.701"
     y2="115.323"
     gradientTransform="translate(0,22.121212)">
    <stop
       offset="0"
       stop-color="#e01d84"
       id="stop2" />
    <stop
       offset=".401"
       stop-color="#df1d85"
       id="stop4" />
    <stop
       offset=".77"
       stop-color="#932c87"
       id="stop6" />
    <stop
       offset="1"
       stop-color="#5d2f88"
       id="stop8" />
  </linearGradient>
  <radialGradient
     id="b"
     cx="190.45599"
     cy="80.199997"
     gradientTransform="matrix(1,0.00239,-0.002,0.8362,0.16,34.806212)"
     gradientUnits="userSpaceOnUse"
     r="121.582">
    <stop
       offset="0"
       stop-color="#e01d84"
       id="stop11" />
    <stop
       offset=".139"
       stop-color="#de1e85"
       id="stop13" />
    <stop
       offset=".285"
       stop-color="#d62085"
       id="stop15" />
    <stop
       offset=".434"
       stop-color="#c92386"
       id="stop17" />
    <stop
       offset=".586"
       stop-color="#b72786"
       id="stop19" />
    <stop
       offset=".739"
       stop-color="#9d2b87"
       id="stop21" />
    <stop
       offset=".891"
       stop-color="#7c2e88"
       id="stop23" />
    <stop
       offset="1"
       stop-color="#5d2f88"
       id="stop25" />
  </radialGradient>
  <linearGradient
     id="c"
     gradientUnits="userSpaceOnUse"
     x1="83.211998"
     x2="137.371"
     y1="62.335999"
     y2="62.335999"
     gradientTransform="translate(0,22.121212)">
    <stop
       offset="0"
       stop-color="#e01d84"
       id="stop28" />
    <stop
       offset=".238"
       stop-color="#da1e85"
       id="stop30" />
    <stop
       offset=".658"
       stop-color="#c72085"
       id="stop32" />
    <stop
       offset=".999"
       stop-color="#b52284"
       id="stop34" />
  </linearGradient>
  <g
     id="g4566"
     transform="translate(63.915659,39.790066)">
    <path
       style="fill:#e32286"
       inkscape:connector-curvature="0"
       id="path37"
       d="m 29.6,197.42121 c -5.2,-16.2 -6.7,-33.3 -3.7,-50.9 1.3,-7.3 3.3,-14.3 5.5,-21.4 0,0 13.8,-45.299998 60.5,-65.999998 0,0 16.1,-8.5 40.3,-9.1 0,0 -3.3,-3.2 -5.4,-4.6 -11.4,-7.6 -28.4,-10.1 -38.7,0.6 -3.1,3.2 -5.7,6.7 -8.6,9.9 -3.3,3.6 -7.3,6.6 -11.9,8.3 -4,1.5 -8,1.2 -12.1,1.9 -4.2,0.7 -8.5,2.2 -11.9,4.9 -3.7,3 -5.2,7 -5.6,11.6 -0.4,3.6 -0.3,7.3 -0.5,10.9 C 37,104.12121 33.6,107.12121 26,113.02121 c -3.2,2.4 -5.9,5.6 -7.9,9 -6,10.6 3.6,21.6 4.1,32.3 0.1,2.2 -0.1,4.4 -0.9,6.5 -0.8,2.3 -2.4,3.8 -3.7,5.7 -1.8,2.5 -3,5.5 -2.5,8.6 0.5,3.1 2.1,6 3.6,8.7 2.9,4.8 6.5,9.1 10.3,13.2 0.2,0 0.4,0.2 0.6,0.4" />
    <path
       style="fill:url(#a)"
       inkscape:connector-curvature="0"
       id="path39"
       d="m 220.4,235.82121 c 23,-10 32.8,-27.3 32.8,-27.3 21.5,-29.3 14.2,-60.2 14.2,-60.2 -13.7,29.8 -26.2,38 -26.2,38 33.7,-51.3 0.2,-82.3 0.2,-82.3 13.7,29.2 -4.5,64.8 -4.5,64.8 -15.3,32.2 -37,43.7 -37,43.7 24.2,4.5 42,-11.8 42,-11.8 -34.7,37.5 -72.3,35.7 -72.3,35.7 15.8,17.7 39.5,16.2 39.5,16.2 -31,7.3 -60.1,-3 -84,-22.9 -4.5,-3.7 -8.8,-7.7 -12.8,-12 0,0 -3.6,-3.8 -4.3,-4.8 l -0.1,-0.1 c -0.5,18.5 18.8,35.7 18.8,35.7 -24.2,-10 -35.3,-31.7 -35.3,-31.7 0,0 -16.3,-27.8 -4.5,-59.5 11.8,-31.7 47.5,-38.5 47.5,-38.5 29.5,14.3 54.5,18.8 54.5,18.8 52.7,8.8 49.7,-17 49.7,-17 0.5,-22.199998 -33,-45.799998 -33,-45.799998 -59.7,-44.3 -113.7,-15.7 -113.7,-15.7 -46.7,20.7 -60.5,65.999998 -60.5,65.999998 -2.2,7.1 -4.2,14.1 -5.5,21.4 -5.1,29.7 2.6,57.8 19.3,82.8 26,38.8 68.2,52.2 68.2,52.2 62.5,21.2 105.2,-10 105.2,-10 39.3,-27 47.2,-58.2 47.2,-58.2 -31.7,24.8 -45.4,22.5 -45.4,22.5 z M 171.6,89.921212 c 3,0 5.4,2.4 5.4,5.4 0,3 -2.4,5.399998 -5.4,5.399998 -3,0 -5.4,-2.399998 -5.4,-5.399998 0,-3 2.4,-5.4 5.4,-5.4 z" />
    <path
       style="fill:url(#b)"
       inkscape:connector-curvature="0"
       id="path41"
       d="m 238.5,120.52121 c 0.5,-22.199998 -33,-45.799998 -33,-45.799998 -59.7,-44.2 -113.7,-15.6 -113.7,-15.6 -46.7,20.7 -60.5,65.999998 -60.5,65.999998 -2.7,7.7 -5.1,19.5 -5.1,19.5 -2.9,14.8 -1.6,28.5 -1.6,28.5 1.2,13.1 4.1,21.9 4.1,21.9 3,9.4 4.4,12.3 4.4,12.3 -0.1,-0.3 -0.6,-2.5 -0.6,-2.5 0,0 -4.2,-20.2 -0.3,-39.6 0,0 3.4,-20.2 17.2,-35.8 0,0 22.4,-31.899998 64.1,-19.4 0,0 9,3.2 12.1,4.8 3.1,1.5 8.5,3.8 8.5,3.8 29.5,14.3 54.5,18.8 54.5,18.8 52.9,8.9 49.9,-16.9 49.9,-16.9 z m -66.9,-19.7 c -3,0 -5.4,-2.399998 -5.4,-5.399998 0,-3 2.4,-5.4 5.4,-5.4 3,0 5.4,2.4 5.4,5.4 0,3 -2.4,5.399998 -5.4,5.399998 z" />
    <path
       style="fill:url(#c)"
       inkscape:connector-curvature="0"
       id="path43"
       d="m 137.4,80.321212 -34.1,-10.6 c -0.2,0 -1.2,-0.5 -3,0 0,0 -20.1,5.1 -16.6,16.1 0,0 2.1,6.9 7.8,13.6 l 37.5,-1.8 z" />
  </g>
</svg>
