<?xml version="1.0" encoding="UTF-8" standalone="no"?>
<!-- Created with Inkscape (http://www.inkscape.org/) -->

<svg
   xmlns:dc="http://purl.org/dc/elements/1.1/"
   xmlns:cc="http://creativecommons.org/ns#"
   xmlns:rdf="http://www.w3.org/1999/02/22-rdf-syntax-ns#"
   xmlns:svg="http://www.w3.org/2000/svg"
   xmlns="http://www.w3.org/2000/svg"
   xmlns:sodipodi="http://sodipodi.sourceforge.net/DTD/sodipodi-0.dtd"
   xmlns:inkscape="http://www.inkscape.org/namespaces/inkscape"
   id="svg2"
   version="1.1"
   inkscape:version="0.91 r13725"
   width="374.97586"
   height="278.94449"
   viewBox="0 0 374.97586 278.94448"
   sodipodi:docname="ts.svg">
  <metadata
     id="metadata8">
    <rdf:RDF>
      <cc:Work
         rdf:about="">
        <dc:format>image/svg+xml</dc:format>
        <dc:type
           rdf:resource="http://purl.org/dc/dcmitype/StillImage" />
        <dc:title></dc:title>
      </cc:Work>
    </rdf:RDF>
  </metadata>
  <defs
     id="defs6" />
  <sodipodi:namedview
     pagecolor="#ffffff"
     bordercolor="#666666"
     borderopacity="1"
     objecttolerance="10"
     gridtolerance="10"
     guidetolerance="10"
     inkscape:pageopacity="0"
     inkscape:pageshadow="2"
     inkscape:window-width="1280"
     inkscape:window-height="598"
     id="namedview4"
     showgrid="false"
     inkscape:zoom="1.2482014"
     inkscape:cx="68.227668"
     inkscape:cy="130.40093"
     inkscape:window-x="8"
     inkscape:window-y="80"
     inkscape:window-maximized="0"
     inkscape:current-layer="svg2"
     fit-margin-top="50"
     fit-margin-left="50"
     fit-margin-right="50"
     fit-margin-bottom="50" />
  <path
     style="fill:#379ad6;fill-opacity:1"
     d="m 248.07519,227.90095 c -18.62989,-3.65512 -34.82221,-13.77031 -43.9933,-27.48223 l -5.18149,-7.74697 7.7998,-4.47876 c 4.28989,-2.46331 10.7248,-6.21559 14.2998,-8.3384 l 6.5,-3.85965 1.91457,2.74664 c 1.05301,1.51065 4.60342,5.32533 7.88979,8.47708 8.02394,7.69525 14.22982,10.11215 26.19564,10.20198 7.91016,0.0594 9.69002,-0.27128 14.69825,-2.73066 6.7139,-3.29699 9.90517,-7.72265 10.57187,-14.66115 0.84754,-8.82051 -4.3972,-14.61786 -19.70677,-21.78322 -32.82007,-15.3608 -38.16659,-18.3449 -45.04419,-25.14083 -9.00802,-8.90105 -12.91964,-16.89774 -14.29606,-29.22602 -2.24652,-20.121611 4.79832,-35.80786 20.69645,-46.083316 9.48664,-6.131511 16.46756,-7.809249 32.43579,-7.795359 8.20478,0.0071 15.63807,0.545692 18.64466,1.350839 6.25353,1.67466 16.01051,6.692536 20.1334,10.354329 C 305.21182,64.883469 314,75.661131 314,76.871431 c 0,0.442963 -5.86267,4.710795 -13.02815,9.484072 l -13.02816,8.678685 -6.22184,-6.44638 c -7.02682,-7.2804 -11.7588,-9.224064 -20.06836,-8.243102 -9.75619,1.151739 -15.65623,7.199428 -15.64975,16.041393 0.007,10.113731 3.85439,13.488821 28.09237,24.646361 21.7763,10.02435 29.93481,14.85794 37.03755,21.94324 9.52848,9.50509 13.88525,20.82756 13.84189,35.97261 -0.0287,10.03755 -1.10209,15.31741 -4.62995,22.77469 -5.34709,11.30282 -19.06548,21.22933 -34.95508,25.29321 -8.30232,2.12338 -28.55463,2.60355 -37.31533,0.88474 z M 101,155.48821 l 0,-72.499994 -25.5,0 -25.5,0 0,-15.024751 0,-15.024751 2.5651,-0.975249 c 1.57323,-0.598139 28.25423,-0.975249 69,-0.975249 l 66.4349,0 0,16 0,16 -25.5,0 -25.5,0 0,72.499994 0,72.5 -18,0 -18,0 0,-72.5 z"
     id="path3338"
     inkscape:connector-curvature="0" />
</svg>
